<?xml version="1.0" encoding="UTF-8" standalone="no"?>
<svg width="147px" height="31px" viewBox="0 0 147 31" version="1.1" xmlns="http://www.w3.org/2000/svg" xmlns:xlink="http://www.w3.org/1999/xlink" xmlns:sketch="http://www.bohemiancoding.com/sketch/ns">
    <!-- Generator: Sketch 3.1.1 (8761) - http://www.bohemiancoding.com/sketch -->
    <title>Slice 2</title>
    <desc>Created with Sketch.</desc>
    <defs></defs>
    <g id="Page-1" stroke="none" stroke-width="1" fill="none" fill-rule="evenodd" sketch:type="MSPage">
        <g id="logo" sketch:type="MSLayerGroup">
            <g id="Page-1" sketch:type="MSShapeGroup">
                <g id="logo">
                    <g id="Group" transform="translate(30.000000, 11.000000)" fill="#000000">
                        <g id="Shanghai">
                            <path d="M0.26,12.12 L1.48,11.4 C2.3333376,12.9733412 3.326661,13.76 4.46,13.76 C5.193337,13.76 5.8199974,13.526669 6.34,13.06 C6.8600026,12.593331 7.12,12.0133368 7.12,11.32 C7.12,10.7733306 6.9000022,10.2200028 6.46,9.66 C6.0199978,9.0999972 5.2900051,8.4366705 4.27,7.67 C3.2499949,6.9033295 2.5633351,6.3300019 2.21,5.95 C1.8566649,5.5699981 1.5966675,5.1633355 1.43,4.73 C1.2633325,4.2966645 1.18,3.8600022 1.18,3.42 C1.18,2.486662 1.5099967,1.6966699 2.17,1.05 C2.8300033,0.4033301 3.659995,0.08 4.66,0.08 C5.4466706,0.08 6.1333304,0.2766647 6.72,0.67 C7.3066696,1.0633353 7.8733306,1.6466628 8.42,2.42 L7.26,3.32 C6.8866648,2.8133308 6.500002,2.393335 6.1,2.06 C5.699998,1.726665 5.2100029,1.56 4.63,1.56 C4.0499971,1.56 3.5766685,1.7333316 3.21,2.08 C2.8433315,2.4266684 2.66,2.866664 2.66,3.4 C2.66,3.933336 2.8233317,4.3966647 3.15,4.79 C3.4766683,5.1833353 4.2166609,5.8066624 5.37,6.66 C6.5233391,7.5133376 7.3633307,8.2999964 7.89,9.02 C8.4166693,9.7400036 8.68,10.499996 8.68,11.3 C8.68,12.3400052 8.2766707,13.2433295 7.47,14.01 C6.6633293,14.7766705 5.726672,15.16 4.66,15.16 C2.7799906,15.16 1.3133386,14.1466768 0.26,12.12 L0.26,12.12 Z M11.48,0.08 L12.86,0.08 L12.86,6.08 C13.9533388,4.6266594 15.2799922,3.9 16.84,3.9 C17.640004,3.9 18.3599968,4.1166645 19,4.55 C19.6400032,4.9833355 20.093332,5.5499965 20.36,6.25 C20.626668,6.9500035 20.76,7.9799932 20.76,9.34 L20.76,14.8 L19.38,14.8 L19.38,9.74 C19.38,8.6466612 19.346667,7.8933354 19.28,7.48 C19.213333,7.0666646 19.0666678,6.6733352 18.84,6.3 C18.6133322,5.9266648 18.3100019,5.6433343 17.93,5.45 C17.5499981,5.2566657 17.0900027,5.16 16.55,5.16 C16.0099973,5.16 15.4933358,5.2866654 15,5.54 C14.5066642,5.7933346 14.0866684,6.1466644 13.74,6.6 C13.3933316,7.0533356 13.1600006,7.5199976 13.04,8 C12.9199994,8.4800024 12.86,9.4466594 12.86,10.9 L12.86,14.8 L11.48,14.8 L11.48,0.08 Z M34.26,4.18 L34.26,14.8 L32.92,14.8 L32.92,12.98 C31.7066606,14.4333406 30.3200078,15.16 28.76,15.16 C27.1999922,15.16 25.8833387,14.6033389 24.81,13.49 C23.7366613,12.3766611 23.2,11.0500077 23.2,9.51 C23.2,7.9699923 23.7399946,6.6500055 24.82,5.55 C25.9000054,4.4499945 27.1933258,3.9 28.7,3.9 C30.433342,3.9 31.8399946,4.6399926 32.92,6.12 L32.92,4.18 L34.26,4.18 Z M33,9.54 C33,8.3266606 32.5933374,7.3033375 31.78,6.47 C30.9666626,5.6366625 29.9700059,5.22 28.79,5.22 C27.6099941,5.22 26.6133374,5.6499957 25.8,6.51 C24.9866626,7.3700043 24.58,8.3866608 24.58,9.56 C24.58,10.7333392 24.9933292,11.7499957 25.82,12.61 C26.6466708,13.4700043 27.6366609,13.9 28.79,13.9 C29.9433391,13.9 30.9333292,13.4866708 31.76,12.66 C32.5866708,11.8333292 33,10.7933396 33,9.54 L33,9.54 Z M37.34,4.18 L38.72,4.18 L38.72,6.08 C39.8133388,4.6266594 41.1399922,3.9 42.7,3.9 C43.500004,3.9 44.2199968,4.1166645 44.86,4.55 C45.5000032,4.9833355 45.953332,5.5499965 46.22,6.25 C46.486668,6.9500035 46.62,7.9799932 46.62,9.34 L46.62,14.8 L45.26,14.8 L45.26,9.74 C45.26,8.4999938 45.2033339,7.6600022 45.09,7.22 C44.9766661,6.7799978 44.8033345,6.4066682 44.57,6.1 C44.3366655,5.7933318 44.0400018,5.5600008 43.68,5.4 C43.3199982,5.2399992 42.8833359,5.16 42.37,5.16 C41.8566641,5.16 41.3533358,5.2866654 40.86,5.54 C40.3666642,5.7933346 39.9466684,6.1466644 39.6,6.6 C39.2533316,7.0533356 39.0200006,7.5199976 38.9,8 C38.7799994,8.4800024 38.72,9.4466594 38.72,10.9 L38.72,14.8 L37.34,14.8 L37.34,4.18 Z M58.84,4.18 L60.22,4.18 L60.22,12.38 C60.22,13.8333406 60.0933346,14.8999966 59.84,15.58 C59.5866654,16.2600034 59.2200024,16.8266644 58.74,17.28 C58.2599976,17.7333356 57.6800034,18.0799988 57,18.32 C56.3199966,18.5600012 55.5733374,18.68 54.76,18.68 C51.9866528,18.68 50.1600044,17.5733444 49.28,15.36 L50.76,15.36 C51.5333372,16.7466736 52.8466574,17.44 54.7,17.44 C55.5933378,17.44 56.3699967,17.2666684 57.03,16.92 C57.6900033,16.5733316 58.1566653,16.1300027 58.43,15.59 C58.7033347,15.0499973 58.84,14.2066724 58.84,13.06 L58.84,12.6 C58.2933306,13.2800034 57.6466704,13.786665 56.9,14.12 C56.1533296,14.453335 55.3666708,14.62 54.54,14.62 C52.9933256,14.62 51.7066718,14.0933386 50.68,13.04 C49.6533282,11.9866614 49.14,10.7466738 49.14,9.32 C49.14,7.8399926 49.6866612,6.566672 50.78,5.5 C51.8733388,4.433328 53.1966589,3.9 54.75,3.9 C56.3033411,3.9 57.6666608,4.6066596 58.84,6.02 L58.84,4.18 Z M58.9,9.32 C58.9,8.1599942 58.5066706,7.1866706 57.72,6.4 C56.9333294,5.6133294 55.9600058,5.22 54.8,5.22 C53.5733272,5.22 52.5533374,5.6433291 51.74,6.49 C50.9266626,7.3366709 50.52,8.3066612 50.52,9.4 C50.52,10.4933388 50.9133294,11.4233295 51.7,12.19 C52.4866706,12.9566705 53.4933272,13.34 54.72,13.34 C55.9466728,13.34 56.9499961,12.9666704 57.73,12.22 C58.5100039,11.4733296 58.9,10.5066726 58.9,9.32 L58.9,9.32 Z M63,0.08 L64.38,0.08 L64.38,6.08 C65.4733388,4.6266594 66.7999922,3.9 68.36,3.9 C69.160004,3.9 69.8799968,4.1166645 70.52,4.55 C71.1600032,4.9833355 71.613332,5.5499965 71.88,6.25 C72.146668,6.9500035 72.28,7.9799932 72.28,9.34 L72.28,14.8 L70.9,14.8 L70.9,9.74 C70.9,8.6466612 70.866667,7.8933354 70.8,7.48 C70.733333,7.0666646 70.5866678,6.6733352 70.36,6.3 C70.1333322,5.9266648 69.8300019,5.6433343 69.45,5.45 C69.0699981,5.2566657 68.6100027,5.16 68.07,5.16 C67.5299973,5.16 67.0133358,5.2866654 66.52,5.54 C66.0266642,5.7933346 65.6066684,6.1466644 65.26,6.6 C64.9133316,7.0533356 64.6800006,7.5199976 64.56,8 C64.4399994,8.4800024 64.38,9.4466594 64.38,10.9 L64.38,14.8 L63,14.8 L63,0.08 Z M85.78,4.18 L85.78,14.8 L84.44,14.8 L84.44,12.98 C83.2266606,14.4333406 81.8400078,15.16 80.28,15.16 C78.7199922,15.16 77.4033387,14.6033389 76.33,13.49 C75.2566613,12.3766611 74.72,11.0500077 74.72,9.51 C74.72,7.9699923 75.2599946,6.6500055 76.34,5.55 C77.4200054,4.4499945 78.7133258,3.9 80.22,3.9 C81.953342,3.9 83.3599946,4.6399926 84.44,6.12 L84.44,4.18 L85.78,4.18 Z M84.52,9.54 C84.52,8.3266606 84.1133374,7.3033375 83.3,6.47 C82.4866626,5.6366625 81.4900059,5.22 80.31,5.22 C79.1299941,5.22 78.1333374,5.6499957 77.32,6.51 C76.5066626,7.3700043 76.1,8.3866608 76.1,9.56 C76.1,10.7333392 76.5133292,11.7499957 77.34,12.61 C78.1666708,13.4700043 79.1566609,13.9 80.31,13.9 C81.4633391,13.9 82.4533292,13.4866708 83.28,12.66 C84.1066708,11.8333292 84.52,10.7933396 84.52,9.54 L84.52,9.54 Z M88.22,1.22 C88.22,0.9133318 88.3299989,0.6466678 88.55,0.42 C88.7700011,0.1933322 89.0366651,0.08 89.35,0.08 C89.6633349,0.08 89.9299989,0.1899989 90.15,0.41 C90.3700011,0.6300011 90.48,0.8966651 90.48,1.21 C90.48,1.5233349 90.3700011,1.7899989 90.15,2.01 C89.9299989,2.2300011 89.6633349,2.34 89.35,2.34 C89.0366651,2.34 88.7700011,2.2266678 88.55,2 C88.3299989,1.7733322 88.22,1.5133348 88.22,1.22 L88.22,1.22 Z M88.66,4.18 L90.04,4.18 L90.04,14.8 L88.66,14.8 L88.66,4.18 Z"></path>
                        </g>
                        <g id="Shape-+-Shape" transform="translate(94.000000, 0.000000)">
                            <path d="M-0.399,13.954 L0.941,11.618 C1.503,12.158 2.24,12.656 3.235,12.656 C4.597,12.656 5.484,11.725 5.484,10.342 L5.484,0.696 L8.576,0.696 L8.576,10.385 C8.576,13.78 6.434,15.38 3.494,15.38 C2.022,15.381 0.638,14.97 -0.399,13.954 L-0.399,13.954 L-0.399,13.954 Z" id="Shape"></path>
                            <path d="M10.847,13.089 L12.535,10.687 C13.551,11.748 15.131,12.657 17.119,12.657 C18.829,12.657 19.629,11.899 19.629,11.056 C19.629,8.548 11.324,10.299 11.324,4.871 C11.324,2.469 13.399,0.48 16.796,0.48 C19.088,0.48 20.992,1.172 22.419,2.492 L20.711,4.784 C19.543,3.702 17.985,3.205 16.514,3.205 C15.217,3.205 14.482,3.767 14.482,4.632 C14.482,6.903 22.766,5.368 22.766,10.754 C22.766,13.392 20.862,15.382 16.991,15.382 C14.201,15.381 12.211,14.453 10.847,13.089 L10.847,13.089 L10.847,13.089 Z" id="Shape"></path>
                        </g>
                    </g>
                    <g id="tower" fill="#000024">
                        <path d="M8,30.4869281 L10.6990735,30.4869281 L10.6990735,20.5825334 L8,20.5825334 L8,30.4869281 Z" id="Rectangle-1"></path>
                        <path d="M3.12846954,20.3945756 L3.12846954,31.2818553 L5.55574861,31.2818553 L5.15775496,19.3155913 L3.12846954,20.3945756 L3.12846954,20.3945756 Z" id="Rectangle-3" transform="translate(4.342109, 25.298723) rotate(210.000000) translate(-4.342109, -25.298723) "></path>
                        <path d="M13.1284695,20.3945756 L13.1284695,31.2818553 L15.5557486,31.2818553 L15.157755,19.3155913 L13.1284695,20.3945756 L13.1284695,20.3945756 Z" id="Rectangle-3-2" transform="translate(14.342109, 25.298723) scale(-1, 1) rotate(210.000000) translate(-14.342109, -25.298723) "></path>
                        <path d="M10.4555868,18.3960396 L10.1250293,10 L8.7861443,10 L8.45558681,18.3960396 L10.4555868,18.3960396 L10.4555868,18.3960396 Z" id="Rectangle-4"></path>
                        <rect id="Rectangle-5" x="9" y="4.13681081" width="1" height="4.59405941"></rect>
                        <path d="M9.17919886,4 L9.79467773,4 L9.79467773,0.1980198 L9.17919886,0.1980198 L9.17919886,4 Z" id="Rectangle-6"></path>
                        <circle id="Oval-2" cx="9.5" cy="18.5" r="3.5"></circle>
                        <ellipse id="Oval-3" cx="9.3877551" cy="4.26732673" rx="1.3877551" ry="1.26732673"></ellipse>
                        <ellipse id="Oval-1" cx="9.5" cy="9" rx="2.23341836" ry="2.03960396"></ellipse>
                    </g>
                </g>
            </g>
        </g>
    </g>
</svg>