<?xml version="1.0" encoding="UTF-8" standalone="no"?>
<svg width="150px" height="33px" viewBox="0 0 150 33" version="1.1" xmlns="http://www.w3.org/2000/svg" xmlns:xlink="http://www.w3.org/1999/xlink" xmlns:sketch="http://www.bohemiancoding.com/sketch/ns">
    <!-- Generator: Sketch 3.1.1 (8761) - http://www.bohemiancoding.com/sketch -->
    <title>logo 2</title>
    <desc>Created with Sketch.</desc>
    <defs></defs>
    <g id="Page-1" stroke="none" stroke-width="1" fill="none" fill-rule="evenodd" sketch:type="MSPage">
        <g id="logo" sketch:type="MSLayerGroup" transform="translate(-123.000000, -138.000000)">
            <g id="Group" transform="translate(154.000000, 149.000000)" fill="#FFFFFF">
                <text id="Shanghai" sketch:type="MSTextLayer" font-family="Heiti SC" font-size="20" font-weight="260">
                    <tspan x="0" y="17">Shanghai</tspan>
                </text>
                <g id="Shape-+-Shape" transform="translate(94.000000, 1.000000)" sketch:type="MSShapeGroup">
                    <path d="M-0.399,13.954 L0.941,11.618 C1.503,12.158 2.24,12.656 3.235,12.656 C4.597,12.656 5.484,11.725 5.484,10.342 L5.484,0.696 L8.576,0.696 L8.576,10.385 C8.576,13.78 6.434,15.38 3.494,15.38 C2.022,15.381 0.638,14.97 -0.399,13.954 L-0.399,13.954 Z" id="Shape"></path>
                    <path d="M10.847,13.089 L12.535,10.687 C13.551,11.748 15.131,12.657 17.119,12.657 C18.829,12.657 19.629,11.899 19.629,11.056 C19.629,8.548 11.324,10.299 11.324,4.871 C11.324,2.469 13.399,0.48 16.796,0.48 C19.088,0.48 20.992,1.172 22.419,2.492 L20.711,4.784 C19.543,3.702 17.985,3.205 16.514,3.205 C15.217,3.205 14.482,3.767 14.482,4.632 C14.482,6.903 22.766,5.368 22.766,10.754 C22.766,13.392 20.862,15.382 16.991,15.382 C14.201,15.381 12.211,14.453 10.847,13.089 L10.847,13.089 Z" id="Shape"></path>
                </g>
            </g>
            <g id="tower" transform="translate(124.000000, 138.000000)" sketch:type="MSShapeGroup">
                <rect id="Rectangle-1" fill="#FFFFFF" x="7.45918367" y="22.8118812" width="2.08163265" height="8.3960396"></rect>
                <path d="M11.7189061,20.5388253 L11.7189061,31.4261049 L13.583881,32.2749226 L13.9298065,20.5388253 L11.7189061,20.5388253 Z" id="Rectangle-2" fill="#FFFFFF" transform="translate(12.824356, 26.406874) rotate(-30.000000) translate(-12.824356, -26.406874) "></path>
                <path d="M3.12846926,21.3945751 L3.12846926,32.2818548 L5.55574833,32.2818548 L5.15775468,20.3155908 L3.12846926,21.3945751 Z" id="Rectangle-3" fill="#FEFEFE" transform="translate(4.342109, 26.298723) rotate(-150.000000) translate(-4.342109, -26.298723) "></path>
                <path d="M9.71428571,18.3762376 L9.3084294,9.98019802 L7.66455521,9.98019802 L7.2586989,18.3762376 L9.71428571,18.3762376 Z" id="Rectangle-4" fill="#FFFFFF"></path>
                <rect id="Rectangle-5" fill="#FFFFFF" x="7.80612245" y="4.91089109" width="1.3877551" height="4.59405941"></rect>
                <rect id="Rectangle-6" fill="#FFFFFF" x="8.15306122" y="0" width="0.693877551" height="3.8019802"></rect>
                <ellipse id="Oval-2" fill="#FFFFFF" cx="8.5" cy="21.3861386" rx="3.98979592" ry="3.64356436"></ellipse>
                <ellipse id="Oval-3" fill="#FFFFFF" cx="8.5" cy="4.07123536" rx="1.3877551" ry="1.26732673"></ellipse>
                <ellipse id="Oval-1" fill="#FFFFFF" cx="8.58673469" cy="8.90291853" rx="2.34183673" ry="2.13861386"></ellipse>
            </g>
        </g>
    </g>
</svg>